<svg width="17" height="19" viewBox="0 0 17 19" fill="none" xmlns="http://www.w3.org/2000/svg">
<g clip-path="url(#clip0_91_67)">
<path d="M15.8258 10.1741C16.2652 9.73467 16.2652 9.021 15.8258 8.58154L10.2008 2.95654C9.76133 2.51709 9.04766 2.51709 8.6082 2.95654C8.16875 3.396 8.16875 4.10967 8.6082 4.54912L12.3172 8.25459H1.53125C0.908984 8.25459 0.40625 8.75732 0.40625 9.37959C0.40625 10.0019 0.908984 10.5046 1.53125 10.5046H12.3137L8.61172 14.2101C8.17227 14.6495 8.17227 15.3632 8.61172 15.8026C9.05117 16.2421 9.76484 16.2421 10.2043 15.8026L15.8293 10.1776L15.8258 10.1741Z" fill="#374151"/>
</g>
<defs>
<clipPath id="clip0_91_67">
<path d="M0.40625 0.378906H16.1562V18.3789H0.40625V0.378906Z" fill="white"/>
</clipPath>
</defs>
</svg>
