<svg width="17" height="17" viewBox="0 0 17 17" fill="none" xmlns="http://www.w3.org/2000/svg">
<g clip-path="url(#clip0_91_386)">
<path d="M7.16875 3.43828L11.0063 7.27578C11.2313 7.50078 11.3594 7.81016 11.3594 8.12891C11.3594 8.44766 11.2313 8.75703 11.0063 8.98203L7.16875 12.8195C6.96875 13.0195 6.7 13.1289 6.41875 13.1289C5.83437 13.1289 5.35938 12.6539 5.35938 12.0695V10.1289H1.35938C0.80625 10.1289 0.359375 9.68203 0.359375 9.12891V7.12891C0.359375 6.57578 0.80625 6.12891 1.35938 6.12891H5.35938V4.18828C5.35938 3.60391 5.83437 3.12891 6.41875 3.12891C6.7 3.12891 6.96875 3.24141 7.16875 3.43828ZM11.3594 13.1289H13.3594C13.9125 13.1289 14.3594 12.682 14.3594 12.1289V4.12891C14.3594 3.57578 13.9125 3.12891 13.3594 3.12891H11.3594C10.8062 3.12891 10.3594 2.68203 10.3594 2.12891C10.3594 1.57578 10.8062 1.12891 11.3594 1.12891H13.3594C15.0156 1.12891 16.3594 2.47266 16.3594 4.12891V12.1289C16.3594 13.7852 15.0156 15.1289 13.3594 15.1289H11.3594C10.8062 15.1289 10.3594 14.682 10.3594 14.1289C10.3594 13.5758 10.8062 13.1289 11.3594 13.1289Z" fill="white"/>
</g>
<defs>
<clipPath id="clip0_91_386">
<path d="M0.359375 0.128906H16.3594V16.1289H0.359375V0.128906Z" fill="white"/>
</clipPath>
</defs>
</svg>
